<mxfile host="Electron" modified="2025-03-13T17:07:01.962Z" agent="Mozilla/5.0 (Windows NT 10.0; Win64; x64) AppleWebKit/537.36 (KHTML, like Gecko) draw.io/24.5.3 Chrome/124.0.6367.207 Electron/30.0.6 Safari/537.36" etag="6mMpZZssNmFV4Gb5hl7f" version="24.5.3" type="device">
  <diagram name="Page-1" id="r--mHyokszLA9luunGbh">
    <mxGraphModel dx="794" dy="519" grid="1" gridSize="10" guides="1" tooltips="1" connect="1" arrows="1" fold="1" page="1" pageScale="1" pageWidth="827" pageHeight="1169" math="0" shadow="0">
      <root>
        <mxCell id="0" />
        <mxCell id="1" parent="0" />
        <mxCell id="zWcSN7PbPvMnI0VV0ZGy-1" value="Client&amp;nbsp;" style="shape=umlActor;verticalLabelPosition=bottom;verticalAlign=top;html=1;" parent="1" vertex="1">
          <mxGeometry x="60" y="20" width="30" height="60" as="geometry" />
        </mxCell>
        <mxCell id="zWcSN7PbPvMnI0VV0ZGy-2" value="Gestionnaire de la banque" style="shape=umlActor;verticalLabelPosition=bottom;verticalAlign=top;html=1;" parent="1" vertex="1">
          <mxGeometry x="660" y="20" width="30" height="60" as="geometry" />
        </mxCell>
        <mxCell id="zWcSN7PbPvMnI0VV0ZGy-4" value="Consulter son solde&amp;nbsp;" style="ellipse;whiteSpace=wrap;html=1;" parent="1" vertex="1">
          <mxGeometry x="160" y="290" width="120" height="50" as="geometry" />
        </mxCell>
        <mxCell id="zWcSN7PbPvMnI0VV0ZGy-5" value="Consulter l&#39;historique des trasactions" style="ellipse;whiteSpace=wrap;html=1;" parent="1" vertex="1">
          <mxGeometry x="190" y="180" width="130" height="50" as="geometry" />
        </mxCell>
        <mxCell id="zWcSN7PbPvMnI0VV0ZGy-6" value="Effectuer une transaction" style="ellipse;whiteSpace=wrap;html=1;" parent="1" vertex="1">
          <mxGeometry y="220" width="110" height="50" as="geometry" />
        </mxCell>
        <mxCell id="zWcSN7PbPvMnI0VV0ZGy-9" value="" style="endArrow=open;endFill=1;endSize=12;html=1;rounded=0;entryX=0.188;entryY=0.02;entryDx=0;entryDy=0;entryPerimeter=0;" parent="1" target="zWcSN7PbPvMnI0VV0ZGy-6" edge="1">
          <mxGeometry width="160" relative="1" as="geometry">
            <mxPoint x="60" y="80" as="sourcePoint" />
            <mxPoint x="220" y="80" as="targetPoint" />
          </mxGeometry>
        </mxCell>
        <mxCell id="zWcSN7PbPvMnI0VV0ZGy-12" value="" style="endArrow=open;endFill=1;endSize=12;html=1;rounded=0;entryX=0.415;entryY=-0.007;entryDx=0;entryDy=0;entryPerimeter=0;exitX=1;exitY=1;exitDx=0;exitDy=0;exitPerimeter=0;" parent="1" source="zWcSN7PbPvMnI0VV0ZGy-1" target="zWcSN7PbPvMnI0VV0ZGy-5" edge="1">
          <mxGeometry width="160" relative="1" as="geometry">
            <mxPoint x="100" y="80" as="sourcePoint" />
            <mxPoint x="260" y="80" as="targetPoint" />
          </mxGeometry>
        </mxCell>
        <mxCell id="zWcSN7PbPvMnI0VV0ZGy-13" value="" style="endArrow=open;endFill=1;endSize=12;html=1;rounded=0;entryX=0.433;entryY=-0.107;entryDx=0;entryDy=0;entryPerimeter=0;" parent="1" target="zWcSN7PbPvMnI0VV0ZGy-4" edge="1">
          <mxGeometry width="160" relative="1" as="geometry">
            <mxPoint x="90" y="79" as="sourcePoint" />
            <mxPoint x="250" y="79" as="targetPoint" />
          </mxGeometry>
        </mxCell>
        <mxCell id="zWcSN7PbPvMnI0VV0ZGy-14" value="Vérifier l&#39;identité du client&amp;nbsp;" style="ellipse;whiteSpace=wrap;html=1;" parent="1" vertex="1">
          <mxGeometry x="570" y="330" width="120" height="50" as="geometry" />
        </mxCell>
        <mxCell id="zWcSN7PbPvMnI0VV0ZGy-15" value="Calculer les intérets&amp;nbsp;" style="ellipse;whiteSpace=wrap;html=1;" parent="1" vertex="1">
          <mxGeometry x="340" y="240" width="140" height="50" as="geometry" />
        </mxCell>
        <mxCell id="zWcSN7PbPvMnI0VV0ZGy-16" value="Créer un compte client&amp;nbsp;" style="ellipse;whiteSpace=wrap;html=1;" parent="1" vertex="1">
          <mxGeometry x="310" y="80" width="130" height="50" as="geometry" />
        </mxCell>
        <mxCell id="zWcSN7PbPvMnI0VV0ZGy-17" value="Appliquer les frais bancaires" style="ellipse;whiteSpace=wrap;html=1;" parent="1" vertex="1">
          <mxGeometry x="460" y="450" width="140" height="50" as="geometry" />
        </mxCell>
        <mxCell id="zWcSN7PbPvMnI0VV0ZGy-18" value="Fermer un compte client&amp;nbsp;" style="ellipse;whiteSpace=wrap;html=1;" parent="1" vertex="1">
          <mxGeometry x="690" y="140" width="120" height="50" as="geometry" />
        </mxCell>
        <mxCell id="zWcSN7PbPvMnI0VV0ZGy-19" value="" style="endArrow=open;endFill=1;endSize=12;html=1;rounded=0;entryX=0.79;entryY=-0.047;entryDx=0;entryDy=0;entryPerimeter=0;" parent="1" target="zWcSN7PbPvMnI0VV0ZGy-16" edge="1">
          <mxGeometry width="160" relative="1" as="geometry">
            <mxPoint x="650" y="60" as="sourcePoint" />
            <mxPoint x="810" y="60" as="targetPoint" />
          </mxGeometry>
        </mxCell>
        <mxCell id="zWcSN7PbPvMnI0VV0ZGy-20" value="" style="endArrow=open;endFill=1;endSize=12;html=1;rounded=0;entryX=0.639;entryY=0.007;entryDx=0;entryDy=0;entryPerimeter=0;" parent="1" target="zWcSN7PbPvMnI0VV0ZGy-18" edge="1">
          <mxGeometry width="160" relative="1" as="geometry">
            <mxPoint x="720" y="100" as="sourcePoint" />
            <mxPoint x="860" y="70" as="targetPoint" />
          </mxGeometry>
        </mxCell>
        <mxCell id="zWcSN7PbPvMnI0VV0ZGy-24" value="&amp;lt;&amp;lt;include&amp;gt;&amp;gt;" style="html=1;verticalAlign=bottom;labelBackgroundColor=none;endArrow=open;endFill=0;dashed=1;rounded=0;entryX=0.25;entryY=0.06;entryDx=0;entryDy=0;entryPerimeter=0;" parent="1" target="zWcSN7PbPvMnI0VV0ZGy-4" edge="1">
          <mxGeometry width="160" relative="1" as="geometry">
            <mxPoint x="50" y="270" as="sourcePoint" />
            <mxPoint x="210" y="270" as="targetPoint" />
          </mxGeometry>
        </mxCell>
        <mxCell id="zWcSN7PbPvMnI0VV0ZGy-26" value="&amp;lt;&amp;lt;include&amp;gt;&amp;gt;" style="html=1;verticalAlign=bottom;labelBackgroundColor=none;endArrow=open;endFill=0;dashed=1;rounded=0;entryX=0.428;entryY=1.007;entryDx=0;entryDy=0;entryPerimeter=0;" parent="1" target="zWcSN7PbPvMnI0VV0ZGy-18" edge="1">
          <mxGeometry width="160" relative="1" as="geometry">
            <mxPoint x="670" y="340" as="sourcePoint" />
            <mxPoint x="830" y="340" as="targetPoint" />
          </mxGeometry>
        </mxCell>
        <mxCell id="zWcSN7PbPvMnI0VV0ZGy-27" value="&amp;lt;&amp;lt;include&amp;gt;&amp;gt;" style="html=1;verticalAlign=bottom;labelBackgroundColor=none;endArrow=open;endFill=0;dashed=1;rounded=0;entryX=0.995;entryY=0.647;entryDx=0;entryDy=0;entryPerimeter=0;" parent="1" target="zWcSN7PbPvMnI0VV0ZGy-16" edge="1">
          <mxGeometry width="160" relative="1" as="geometry">
            <mxPoint x="600" y="330" as="sourcePoint" />
            <mxPoint x="760" y="330" as="targetPoint" />
          </mxGeometry>
        </mxCell>
        <mxCell id="rOjGrscllGnr3d7wrGWQ-1" value="Sysème bancaire" style="shape=umlActor;verticalLabelPosition=bottom;verticalAlign=top;html=1;" parent="1" vertex="1">
          <mxGeometry x="250" y="460" width="30" height="60" as="geometry" />
        </mxCell>
        <mxCell id="rOjGrscllGnr3d7wrGWQ-3" value="" style="endArrow=open;endFill=1;endSize=12;html=1;rounded=0;entryX=0.224;entryY=0.973;entryDx=0;entryDy=0;entryPerimeter=0;" parent="1" target="zWcSN7PbPvMnI0VV0ZGy-17" edge="1">
          <mxGeometry width="160" relative="1" as="geometry">
            <mxPoint x="290" y="520" as="sourcePoint" />
            <mxPoint x="510" y="490" as="targetPoint" />
          </mxGeometry>
        </mxCell>
        <mxCell id="rOjGrscllGnr3d7wrGWQ-4" value="" style="endArrow=open;endFill=1;endSize=12;html=1;rounded=0;entryX=0;entryY=1;entryDx=0;entryDy=0;" parent="1" target="zWcSN7PbPvMnI0VV0ZGy-15" edge="1">
          <mxGeometry width="160" relative="1" as="geometry">
            <mxPoint x="290" y="490.65" as="sourcePoint" />
            <mxPoint x="328.28" y="290" as="targetPoint" />
            <Array as="points">
              <mxPoint x="290" y="500.65" />
            </Array>
          </mxGeometry>
        </mxCell>
        <mxCell id="rOjGrscllGnr3d7wrGWQ-5" value="depôt&amp;nbsp;" style="ellipse;whiteSpace=wrap;html=1;" parent="1" vertex="1">
          <mxGeometry y="390" width="80" height="30" as="geometry" />
        </mxCell>
        <mxCell id="rOjGrscllGnr3d7wrGWQ-6" value="retrait" style="ellipse;whiteSpace=wrap;html=1;" parent="1" vertex="1">
          <mxGeometry x="60" y="440" width="80" height="30" as="geometry" />
        </mxCell>
        <mxCell id="rOjGrscllGnr3d7wrGWQ-7" value="virement" style="ellipse;whiteSpace=wrap;html=1;" parent="1" vertex="1">
          <mxGeometry x="140" y="390" width="80" height="30" as="geometry" />
        </mxCell>
        <mxCell id="rOjGrscllGnr3d7wrGWQ-8" value="Extends" style="endArrow=block;endSize=16;endFill=0;html=1;rounded=0;entryX=0.225;entryY=-0.089;entryDx=0;entryDy=0;entryPerimeter=0;" parent="1" target="rOjGrscllGnr3d7wrGWQ-5" edge="1">
          <mxGeometry width="160" relative="1" as="geometry">
            <mxPoint x="30" y="270" as="sourcePoint" />
            <mxPoint x="190" y="270" as="targetPoint" />
          </mxGeometry>
        </mxCell>
        <mxCell id="rOjGrscllGnr3d7wrGWQ-9" value="Extends" style="endArrow=block;endSize=16;endFill=0;html=1;rounded=0;entryX=0.5;entryY=0;entryDx=0;entryDy=0;" parent="1" target="rOjGrscllGnr3d7wrGWQ-6" edge="1">
          <mxGeometry width="160" relative="1" as="geometry">
            <mxPoint x="46" y="270" as="sourcePoint" />
            <mxPoint x="34" y="387" as="targetPoint" />
          </mxGeometry>
        </mxCell>
        <mxCell id="rOjGrscllGnr3d7wrGWQ-10" value="Extends" style="endArrow=block;endSize=16;endFill=0;html=1;rounded=0;entryX=0.092;entryY=-0.067;entryDx=0;entryDy=0;entryPerimeter=0;" parent="1" target="rOjGrscllGnr3d7wrGWQ-7" edge="1">
          <mxGeometry width="160" relative="1" as="geometry">
            <mxPoint x="50" y="270" as="sourcePoint" />
            <mxPoint x="210" y="270" as="targetPoint" />
          </mxGeometry>
        </mxCell>
        <mxCell id="rOjGrscllGnr3d7wrGWQ-11" value="&amp;lt;&amp;lt;include&amp;gt;&amp;gt;" style="html=1;verticalAlign=bottom;labelBackgroundColor=none;endArrow=open;endFill=0;dashed=1;rounded=0;entryX=0.219;entryY=0.013;entryDx=0;entryDy=0;entryPerimeter=0;exitX=0.938;exitY=0.8;exitDx=0;exitDy=0;exitPerimeter=0;" parent="1" source="zWcSN7PbPvMnI0VV0ZGy-15" target="zWcSN7PbPvMnI0VV0ZGy-17" edge="1">
          <mxGeometry width="160" relative="1" as="geometry">
            <mxPoint x="350" y="390" as="sourcePoint" />
            <mxPoint x="510" y="390" as="targetPoint" />
          </mxGeometry>
        </mxCell>
        <mxCell id="rOjGrscllGnr3d7wrGWQ-12" value="" style="endArrow=open;endFill=1;endSize=12;html=1;rounded=0;entryX=0.567;entryY=-0.067;entryDx=0;entryDy=0;entryPerimeter=0;" parent="1" target="zWcSN7PbPvMnI0VV0ZGy-14" edge="1">
          <mxGeometry width="160" relative="1" as="geometry">
            <mxPoint x="660" y="100" as="sourcePoint" />
            <mxPoint x="820" y="100" as="targetPoint" />
          </mxGeometry>
        </mxCell>
        <mxCell id="rOjGrscllGnr3d7wrGWQ-14" value="" style="endArrow=open;endFill=1;endSize=12;html=1;rounded=0;" parent="1" edge="1">
          <mxGeometry width="160" relative="1" as="geometry">
            <mxPoint x="280" y="510" as="sourcePoint" />
            <mxPoint x="380" y="440" as="targetPoint" />
          </mxGeometry>
        </mxCell>
        <mxCell id="rOjGrscllGnr3d7wrGWQ-15" value="Envoyer des notifications" style="ellipse;whiteSpace=wrap;html=1;" parent="1" vertex="1">
          <mxGeometry x="370" y="390" width="110" height="50" as="geometry" />
        </mxCell>
        <mxCell id="IRWVbyz_PnXnzfkEy7C6-2" value="&amp;lt;&amp;lt;extend&amp;gt;&amp;gt;" style="html=1;verticalAlign=bottom;labelBackgroundColor=none;endArrow=open;endFill=0;dashed=1;rounded=0;" edge="1" parent="1">
          <mxGeometry width="160" relative="1" as="geometry">
            <mxPoint x="770" y="190" as="sourcePoint" />
            <mxPoint x="760" y="430" as="targetPoint" />
          </mxGeometry>
        </mxCell>
        <mxCell id="IRWVbyz_PnXnzfkEy7C6-4" value="{verifier si le solde est à 0}" style="endArrow=none;startArrow=none;endFill=0;startFill=0;endSize=8;html=1;verticalAlign=bottom;dashed=1;labelBackgroundColor=none;dashPattern=10 10;rounded=0;" edge="1" parent="1">
          <mxGeometry width="160" relative="1" as="geometry">
            <mxPoint x="680" y="450" as="sourcePoint" />
            <mxPoint x="840" y="450" as="targetPoint" />
          </mxGeometry>
        </mxCell>
      </root>
    </mxGraphModel>
  </diagram>
</mxfile>
